:SAMPLES-PER-SECOND 30
:FULLY-SPECIFIED
:DEGREES
32
root  2.12169 39.7309 0.333315 29.2871 -84.3411 -31.2585
RightUpLeg  -3.10793 -6.57588 -3.22684
RightLeg  9.12526 -10.3372 -2.56971
RightFoot  0.246598 -1.02901 10.1328
RightToes  -1.33073e-015 0 -3.6325e-017
Spine  9.75026 -1.85461 5.22302
Spine1  6.39301 -4.0112 10.943
HEad  46.6197 -29.5352 -5.93103
LeftShoulder1  2.67376 -7.56547 -17.5301
LeftArm  -4.41305 14.0765 -58.388
LeftForeArm  9.34096 -6.92718 -13.6053
LeftHand  -0.0207171 0.608698 0.454585
RightShoulder  1.70716 3.20454 19.0165
RightArm  -9.93609 -3.15904 49.1989
RightForeArm  26.6013 4.79093 12.9864
RightHand  -0.29791 -2.76244 -12.838
LeftUpLeg  -15.2717 25.7331 13.7671
LeftLeg  25.3548 -10.6756 -5.15603
LeftFoot  5.28563 3.06738 -20.9078
LeftToes  -4.0021e-011 8.38769e-011 -3.99229e-011
33
root  2.22134 39.6205 0.266158 38.7324 -84.8358 -40.5725
RightUpLeg  -4.20063 -6.46657 -2.66391
RightLeg  10.3348 -9.52457 -2.47201
RightFoot  -0.133232 -0.99635 10.1195
RightToes  -1.33073e-015 0 -3.6325e-017
Spine  10.3294 -1.72556 6.55632
Spine1  5.67678 -3.50611 10.3302
HEad  45.412 -29.4791 -5.22615
LeftShoulder1  2.71059 -7.74515 -17.4666
LeftArm  -1.81105 13.4931 -59.2833
LeftForeArm  9.13291 -8.43376 -13.2945
LeftHand  -0.0484355 1.58322 1.27519
RightShoulder  1.68419 3.29597 18.2788
RightArm  -8.76069 -1.82884 49.7711
RightForeArm  19.3831 8.73329 11.947
RightHand  -0.428746 -1.74982 -13.5414
LeftUpLeg  -16.466 28.4333 15.8142
LeftLeg  28.2176 -14.8736 -8.17515
LeftFoot  6.42009 4.74784 -30.0771
LeftToes  -4.0021e-011 8.38769e-011 -3.99229e-011
34
root  2.28716 39.5566 0.272313 42.2883 -85.2264 -44.0406
RightUpLeg  -4.84246 -6.71658 -2.80683
RightLeg  11.0551 -8.74649 -2.23479
RightFoot  -0.461585 -0.961291 10.0372
RightToes  -1.33073e-015 0 -3.6325e-017
Spine  10.6049 -1.81977 7.04401
Spine1  5.35361 -3.39049 9.93989
HEad  44.1015 -29.3981 -4.68984
LeftShoulder1  2.75285 -7.89924 -17.5156
LeftArm  2.66331 12.9887 -60.076
LeftForeArm  8.40759 -10.9933 -12.456
LeftHand  -0.0976272 2.93109 4.07628
RightShoulder  1.67142 3.39968 17.6712
RightArm  -5.64501 -0.43517 50.0576
RightForeArm  11.104 13.2416 10.1594
RightHand  -0.53752 -0.933008 -13.95
LeftUpLeg  -16.5585 27.9641 17.2814
LeftLeg  29.2485 -16.6319 -9.52882
LeftFoot  5.47556 5.27556 -34.8853
LeftToes  -4.0021e-011 8.38769e-011 -3.99229e-011
35
root  2.31744 39.6072 0.324131 39.7832 -85.7256 -41.6138
RightUpLeg  -4.65506 -6.93248 -3.41354
RightLeg  10.6706 -8.32016 -2.11811
RightFoot  -0.257662 -0.972986 9.98564
RightToes  -1.33073e-015 0 -3.6325e-017
Spine  10.816 -2.03975 6.69303
Spine1  5.19321 -3.46464 9.35099
HEad  43.0845 -29.3114 -4.32233
LeftShoulder1  2.77619 -7.98516 -17.5401
LeftArm  7.35245 12.3564 -60.6888
LeftForeArm  9.879 -13.1113 -11.4334
LeftHand  -0.063819 4.50421 5.41474
RightShoulder  1.6664 3.44889 17.4057
RightArm  -0.953317 1.04342 49.5787
RightForeArm  3.19638 17.5669 7.84424
RightHand  -0.642955 -0.324029 -14.7321
LeftUpLeg  -15.361 24.2057 18.0976
LeftLeg  27.8971 -13.704 -7.46464
LeftFoot  2.99233 4.13046 -32.1061
LeftToes  -4.0021e-011 8.38769e-011 -3.99229e-011
36
root  2.30554 39.6914 0.438061 40.5154 -86.3525 -42.3306
RightUpLeg  -4.3405 -6.86864 -3.88814
RightLeg  9.82937 -7.89668 -2.12181
RightFoot  0.274014 -1.0291 10.111
RightToes  -1.33073e-015 0 -3.6325e-017
Spine  10.8014 -2.1272 6.37129
Spine1  4.939 -3.38603 8.53489
HEad  42.3966 -29.1191 -4.22693
LeftShoulder1  2.78062 -8.03479 -17.4669
LeftArm  10.3835 11.5593 -61.0556
LeftForeArm  13.3014 -13.768 -11.009
LeftHand  -0.0213082 5.51621 4.00772
RightShoulder  1.65673 3.4626 17.2031
RightArm  2.60026 2.2877 48.4578
RightForeArm  -1.67734 21.152 5.82895
RightHand  -0.736581 0.0598627 -15.7146
LeftUpLeg  -13.1629 18.8521 18.5923
LeftLeg  24.5169 -7.26995 -3.3131
LeftFoot  1.74042 3.03827 -26.2573
LeftToes  -4.0021e-011 8.38769e-011 -3.99229e-011
37
root  2.24047 39.7137 0.644098 51.3197 -86.9554 -52.8022
RightUpLeg  -4.54646 -6.70129 -4.08382
RightLeg  9.3649 -7.15878 -2.10422
RightFoot  0.579996 -1.08327 10.3873
RightToes  -1.33073e-015 0 -3.6325e-017
Spine  10.3758 -2.01588 6.46326
Spine1  4.47555 -3.13786 7.95738
HEad  41.9308 -28.6869 -4.42146
LeftShoulder1  2.77962 -8.09604 -17.318
LeftArm  11.8862 10.899 -61.1918
LeftForeArm  14.8116 -13.4279 -11.2939
LeftHand  -0.0288549 5.22229 2.64175
RightShoulder  1.65676 3.55962 16.8471
RightArm  2.87379 3.04131 46.9441
RightForeArm  -2.31502 23.8382 5.14601
RightHand  -0.79741 0.244433 -16.4548
LeftUpLeg  -10.3508 14.0441 18.8036
LeftLeg  19.985 -2.09563 -0.52474
LeftFoot  2.25595 2.72687 -22.7279
LeftToes  -4.0021e-011 8.38769e-011 -3.99229e-011
38
root  2.13053 39.7171 0.922301 68.8134 -87.2591 -69.8248
RightUpLeg  -4.7532 -6.6345 -4.2574
RightLeg  8.7254 -6.3398 -1.93434
RightFoot  0.848343 -1.14011 10.7024
RightToes  -1.33073e-015 0 -3.6325e-017
Spine  9.78473 -1.91239 6.44571
Spine1  3.82353 -3.00006 7.75937
HEad  41.4977 -27.9614 -4.63595
LeftShoulder1  2.78028 -8.16301 -17.1785
LeftArm  12.769 10.8354 -61.1468
LeftForeArm  11.7435 -13.3204 -11.5909
LeftHand  -0.0701909 3.77776 3.53855
RightShoulder  1.67215 3.73827 16.4449
RightArm  1.63947 3.59748 45.2363
RightForeArm  -1.23941 25.5052 5.52831
RightHand  -0.84411 0.412365 -16.9148
LeftUpLeg  -7.18616 10.7633 18.3666
LeftLeg  14.6895 0.226342 0.484392
LeftFoot  2.38117 2.51955 -20.8371
LeftToes  -4.0021e-011 8.38769e-011 -3.99229e-011
39
root  2.00166 39.7885 1.23204 84.0947 -87.247 -84.824
RightUpLeg  -4.07002 -6.63942 -4.5557
RightLeg  6.82504 -5.79053 -1.59264
RightFoot  1.7606 -1.25991 11.0424
RightToes  -1.33073e-015 0 -3.6325e-017
Spine  9.36022 -1.9646 5.6967
Spine1  3.17189 -3.16949 7.84931
HEad  40.8548 -27.0939 -4.54497
LeftShoulder1  2.78775 -8.21016 -17.1433
LeftArm  12.9246 11.327 -61.0341
LeftForeArm  5.94113 -13.9506 -11.4154
LeftHand  -0.170324 1.47333 4.96921
RightShoulder  1.68124 3.85721 16.1706
RightArm  1.86535 4.50152 43.5115
RightForeArm  -1.6804 26.0848 5.6891
RightHand  -0.884072 0.606036 -17.1504
LeftUpLeg  -4.00585 9.65008 17.0638
LeftLeg  9.21225 1.82747 1.71347
LeftFoot  1.53438 2.06892 -18.2799
LeftToes  -4.0021e-011 8.38769e-011 -3.99229e-011
40
root  1.88393 39.9241 1.55996 94.0336 -87.2573 -94.7554
RightUpLeg  -2.58595 -6.66545 -5.09041
RightLeg  3.93133 -5.44411 -1.25221
RightFoot  3.29058 -1.44948 11.4302
RightToes  -1.33073e-015 0 -3.6325e-017
Spine  9.13709 -2.05023 4.00503
Spine1  2.82071 -3.53748 8.24031
HEad  39.9944 -26.2994 -3.92062
LeftShoulder1  2.80258 -8.25178 -17.1888
LeftArm  12.2633 11.5319 -60.9897
LeftForeArm  -0.0699824 -14.7031 -11.0772
LeftHand  -0.24569 -0.674821 4.81508
RightShoulder  1.6925 3.88314 16.25
RightArm  2.5923 5.73307 41.7182
RightForeArm  -2.79348 25.7008 5.65739
RightHand  -0.885147 0.623183 -17.1219
LeftUpLeg  -1.23776 10.7367 15.4383
LeftLeg  4.3885 3.30729 3.26328
LeftFoot  1.23342 1.78066 -16.155
LeftToes  -4.0021e-011 8.38769e-011 -3.99229e-011
41
root  1.81263 40.0371 1.91794 102.982 -87.6832 -103.854
RightUpLeg  -1.43742 -6.83782 -6.11573
RightLeg  1.93161 -4.91633 -1.21074
RightFoot  4.45246 -1.62005 11.8628
RightToes  -1.33073e-015 0 -3.6325e-017
Spine  9.09974 -2.02068 1.80653
Spine1  2.81757 -3.79808 8.54727
HEad  39.1567 -25.3374 -2.48474
LeftShoulder1  2.80744 -8.3214 -17.0811
LeftArm  11.5818 10.5636 -60.966
LeftForeArm  -4.96062 -14.8285 -11.155
LeftHand  -0.241552 -1.33792 4.3064
RightShoulder  1.74297 3.91858 16.8726
RightArm  2.59858 6.53688 40.0484
RightForeArm  -3.95143 24.6571 5.4602
RightHand  -0.858715 0.407977 -17.2186
LeftUpLeg  0.723276 10.9711 14.2713
LeftLeg  1.24889 4.88486 3.39713
LeftFoot  2.05964 1.89806 -16.1593
LeftToes  -4.0021e-011 8.38769e-011 -3.99229e-011
42
root  1.82107 40.0801 2.30989 127.761 -88.4699 -128.844
RightUpLeg  -1.38675 -7.27607 -7.72189
RightLeg  1.95419 -3.98327 -1.5636
RightFoot  4.73253 -1.71686 12.3487
RightToes  -1.33073e-015 0 -3.6325e-017
Spine  9.40518 -1.97067 0.101654
Spine1  2.75099 -3.72087 7.79195
HEad  38.4174 -23.2345 -0.148777
LeftShoulder1  2.77439 -8.40872 -16.5902
LeftArm  11.6747 8.44469 -60.7492
LeftForeArm  -6.96816 -14.332 -11.6147
LeftHand  -0.266657 -0.637401 5.25814
RightShoulder  1.81482 3.9901 17.674
RightArm  1.14163 6.23361 39.3915
RightForeArm  -4.93059 22.9445 5.3556
RightHand  -0.875151 0.190633 -18.1915
LeftUpLeg  1.69816 10.9815 13.1671
LeftLeg  0.167604 4.8209 2.39157
LeftFoot  2.79407 2.10639 -17.0297
LeftToes  -4.0021e-011 8.38769e-011 -3.99229e-011
